<svg width="64.000000" height="49.920044" viewBox="0 0 64 49.92" fill="none" xmlns="http://www.w3.org/2000/svg" xmlns:xlink="http://www.w3.org/1999/xlink">
	<desc>
		Tax low icon
	</desc>
	<defs/>
	<path id="Vector" d="M19.2 0C11.28 0 5.83 2.69 5.83 2.69C5.61 2.79 5.43 2.96 5.31 3.16C5.18 3.36 5.12 3.6 5.12 3.83L5.12 7.68L3.84 7.68C1.73 7.68 0 9.41 0 11.52L0 44.8C0 46.9 1.73 48.64 3.84 48.64L29.15 48.64C29.86 49.41 30.86 49.92 32 49.92C33.13 49.92 34.13 49.41 34.84 48.64L60.16 48.64C62.26 48.64 64 46.9 64 44.8L64 11.52C64 9.41 62.26 7.68 60.16 7.68L58.88 7.68L58.88 3.83C58.88 3.6 58.81 3.36 58.68 3.16C58.56 2.96 58.38 2.79 58.16 2.69C58.16 2.69 52.71 0 44.8 0C38.03 0 33.3 1.87 32 2.44C30.69 1.87 25.96 0 19.2 0ZM19.2 2.56C25.76 2.56 29.81 4.31 30.72 4.72L30.72 41.7C28.82 40.94 25.16 39.68 19.2 39.68C13.23 39.68 9.57 40.94 7.67 41.7L7.67 9.17C7.7 9.03 7.7 8.89 7.67 8.75L7.67 4.72C8.58 4.31 12.63 2.56 19.2 2.56ZM44.8 2.56C51.36 2.56 55.41 4.31 56.31 4.72L56.31 8.74C56.29 8.88 56.29 9.02 56.31 9.16L56.31 41.7C54.42 40.94 50.76 39.68 44.8 39.68C38.83 39.68 35.17 40.94 33.28 41.7L33.28 4.72C34.18 4.31 38.23 2.56 44.8 2.56ZM43.52 7.68L43.52 10.35C41.32 10.7 39.89 11.93 39.2 13.15C38.38 14.6 38.4 16.05 38.4 16.05C38.4 17.87 39.31 19.32 40.47 20.26C41.63 21.21 43 21.79 44.28 22.35C45.56 22.92 46.74 23.47 47.5 24.1C48.26 24.73 48.64 25.3 48.64 26.4C48.64 26.4 48.62 27.14 48.18 27.9C47.73 28.66 47 29.43 44.8 29.43C42.66 29.43 41.95 28.56 41.46 27.58C40.97 26.61 40.96 25.6 40.96 25.6L38.4 25.6C38.4 25.6 38.38 27.14 39.17 28.73C39.84 30.07 41.28 31.47 43.52 31.87L43.52 34.56L46.08 34.56L46.08 31.89C48.25 31.55 49.67 30.39 50.38 29.21C51.21 27.81 51.2 26.4 51.2 26.4C51.2 24.56 50.29 23.09 49.13 22.13C47.97 21.17 46.59 20.58 45.31 20.01C44.03 19.45 42.84 18.9 42.08 18.28C41.32 17.66 40.96 17.11 40.96 16.05C40.96 16.05 40.97 15.23 41.43 14.41C41.89 13.59 42.61 12.8 44.8 12.8C46.93 12.8 47.64 13.67 48.13 14.65C48.62 15.62 48.64 16.64 48.64 16.64L51.2 16.64C51.2 16.64 51.21 15.09 50.42 13.5C49.75 12.16 48.31 10.76 46.08 10.36L46.08 7.68L43.52 7.68ZM3.84 10.24L5.12 10.24L5.12 43.52C5.12 43.73 5.17 43.95 5.28 44.14C5.38 44.33 5.54 44.49 5.72 44.6C5.91 44.72 6.12 44.78 6.34 44.79C6.56 44.8 6.77 44.76 6.97 44.66C6.97 44.66 11.8 42.24 19.2 42.24C26.59 42.24 31.42 44.66 31.42 44.66C31.46 44.68 31.5 44.69 31.53 44.71C31.57 44.72 31.6 44.73 31.63 44.74C31.64 44.74 31.65 44.75 31.66 44.75C31.74 44.77 31.82 44.79 31.91 44.79C31.95 44.8 31.99 44.8 32.04 44.8C32.04 44.8 32.04 44.8 32.04 44.8C32.09 44.79 32.13 44.79 32.17 44.78C32.21 44.78 32.25 44.77 32.29 44.76C32.29 44.76 32.29 44.76 32.3 44.76C32.3 44.76 32.3 44.76 32.31 44.76C32.4 44.73 32.48 44.7 32.57 44.66C32.57 44.66 37.4 42.24 44.8 42.24C52.19 42.24 57.02 44.66 57.02 44.66C57.22 44.76 57.43 44.8 57.65 44.79C57.87 44.78 58.08 44.72 58.27 44.6C58.45 44.49 58.61 44.33 58.71 44.14C58.82 43.95 58.88 43.73 58.88 43.52L58.88 10.24L60.16 10.24C60.88 10.24 61.43 10.79 61.43 11.52L61.43 44.8C61.43 45.52 60.88 46.08 60.16 46.08L3.84 46.08C3.11 46.08 2.56 45.52 2.56 44.8L2.56 11.52C2.56 10.79 3.11 10.24 3.84 10.24Z" fill="#00486D" fill-opacity="1.000000" fill-rule="nonzero"/>
</svg>
