<svg width="60.419998" height="61.439941" viewBox="0 0 60.42 61.4399" fill="none" xmlns="http://www.w3.org/2000/svg" xmlns:xlink="http://www.w3.org/1999/xlink">
	<desc>
		World Icon
	</desc>
	<defs/>
	<path id="Vector" d="M28.42 0C14.84 0 3.39 9.23 0 21.76L2.67 21.76C3.63 18.55 5.18 15.61 7.18 13.03C9.36 14.26 11.89 15.29 14.69 16.08C14.22 17.87 13.84 19.77 13.57 21.76L16.18 21.76C16.44 20 16.79 18.31 17.21 16.71C20.29 17.39 23.63 17.8 27.14 17.87L27.14 21.76L29.7 21.76L29.7 17.87C33.2 17.8 36.54 17.4 39.62 16.71C40.04 18.31 40.4 20 40.66 21.76L43.27 21.76C43 19.77 42.61 17.87 42.14 16.08C44.94 15.29 47.47 14.26 49.66 13.03C51.65 15.61 53.21 18.55 54.16 21.76L56.84 21.76C53.45 9.23 41.99 0 28.42 0ZM27.14 2.71L27.14 15.31C23.88 15.24 20.79 14.87 17.94 14.25C20.04 7.95 23.38 3.54 27.14 2.71ZM29.7 2.71C33.46 3.54 36.79 7.95 38.9 14.25C36.05 14.87 32.95 15.24 29.7 15.31L29.7 2.71ZM20.91 3.65C18.65 6.03 16.77 9.45 15.41 13.62C12.96 12.92 10.75 12.05 8.86 11.03C12.1 7.59 16.25 5.01 20.91 3.65ZM35.93 3.65C40.59 5.01 44.73 7.59 47.97 11.03C46.08 12.05 43.87 12.92 41.43 13.62C40.07 9.45 38.18 6.03 35.93 3.65ZM0.26 24.31L3.51 34.55L6.49 34.55L9.2 26.9L11.91 34.55L14.82 34.55L18.13 24.31L15.36 24.31L13.27 31.47L10.88 24.31L7.62 24.31L5.13 31.35L3.07 24.31L0.26 24.31ZM19.48 24.31L22.73 34.55L25.72 34.55L28.42 26.9L31.13 34.55L34.05 34.55L37.36 24.31L34.58 24.31L32.5 31.47L30.11 24.31L26.84 24.31L24.35 31.35L22.3 24.31L19.48 24.31ZM38.64 24.31L41.9 34.55L44.89 34.55L47.61 26.9L50.33 34.55L53.26 34.55L56.58 24.31L53.8 24.31L51.7 31.47L49.3 24.31L46.02 24.31L43.52 31.35L41.46 24.31L38.64 24.31ZM47.62 35.84C40.58 35.84 34.82 41.6 34.82 48.64C34.82 55.67 40.58 61.43 47.62 61.43C54.66 61.43 60.42 55.67 60.42 48.64C60.42 41.6 54.66 35.84 47.62 35.84ZM0 37.12C3.39 49.64 14.84 58.88 28.42 58.88C30.85 58.88 33.21 58.56 35.48 58.01C35.05 57.46 34.66 56.86 34.32 56.26C33.93 55.59 33.59 54.9 33.31 54.18C32.17 55.21 30.96 55.89 29.7 56.17L29.7 43.55C30.83 43.59 31.96 43.64 33.07 43.74C33.36 42.89 33.71 42.05 34.14 41.27C32.68 41.12 31.2 41.03 29.7 41L29.7 37.12L27.14 37.12L27.14 41C23.68 41.08 20.34 41.47 17.21 42.16C16.79 40.56 16.44 38.88 16.18 37.12L13.57 37.12C13.84 39.11 14.23 41 14.69 42.79C11.92 43.58 9.38 44.6 7.18 45.84C5.18 43.26 3.63 40.32 2.67 37.12L0 37.12ZM47.62 38.39C53.25 38.39 57.86 43.01 57.86 48.64C57.86 54.27 53.25 58.88 47.62 58.88C41.99 58.88 37.38 54.27 37.38 48.64C37.38 43.01 41.99 38.39 47.62 38.39ZM47.62 42.24C44.8 42.24 43.78 44.54 43.78 46.08L46.34 46.08C46.34 45.43 46.59 44.79 47.62 44.79C48.26 44.79 48.9 45.05 48.9 46.08C48.9 46.21 48.51 46.72 48.26 46.97C47.49 47.87 46.34 49.27 46.34 51.2L48.9 51.2C48.9 50.17 49.54 49.4 50.18 48.64C50.82 47.87 51.46 47.1 51.46 46.08C51.46 43.26 49.15 42.24 47.62 42.24ZM27.14 43.55L27.14 56.16C23.38 55.33 20.04 50.92 17.94 44.62C20.83 44 23.93 43.63 27.14 43.55ZM15.41 45.25C16.77 49.41 18.65 52.85 20.91 55.22C16.25 53.86 12.1 51.28 8.85 47.83C10.79 46.79 13 45.92 15.41 45.25ZM46.34 52.48L46.34 55.03L48.9 55.03L48.9 52.48L46.34 52.48Z" fill="#00486D" fill-opacity="1.000000" fill-rule="nonzero"/>
</svg>
